<!--?xml version="1.0" encoding="utf-8"?-->
<svg version="1.1" x="0px" y="0px" id="iconz004033123923805200" viewBox="50 25 402 402" xmlns="http://www.w3.org/2000/svg" style="enable-background:new 0 0 512 512;" xml:space="preserve"><style type="text/css">
.baseF{fill:#FFFFFF}
.baseB{fill:#232256}
.eyeF{fill:#FFFFFF}
.eyeB{fill:#232256}
.eyeT{fill:#BDC7D6}
.hairF{fill:#FFFFFF}
.hairB{fill:#232256}
.hairU{fill:#5E7AA5}
.hairT{fill:#BDC7D6}
.noseF{fill:#FFFFFF}
.noseB{fill:#232256}
.noseU{fill:#5E7AA5}
.mayugeB{fill:#232256}
.mayugeU{fill:#5E7AA5}
.mayugeT{fill:#BDC7D6}
.mayugeF{fill:#FFFFFF}
.mouthF{fill:#FFFFFF}
.mouthB{fill:#232256}
.mouthT{fill:#BDC7D6}
.mouthU{fill:#5E7AA5}
.hatF{fill:#FFFFFF}
.hatB{fill:#232256}
.hatU{fill:#5E7AA5}
.hatT{fill:#BDC7D6}
.higeU{fill:#5E7AA5}
.higeB{fill:#232256}
.higeF{fill:#FFFFFF}
.bodyF{fill:#FFFFFF}
.bodyB{fill:#232256}
.bodyU{fill:#5E7AA5}
.bodyT{fill:#BDC7D6}
.bodyS{fill:#8DA6C9}
.bodyH{fill:#FFFFFF}
.glassF{fill:#FFFFFF}
.glassB{fill:#232256}
.glassT{fill:#BDC7D6}
.glassU{fill:#5E7AA5}
.kirakiraF{fill:#FFFFFF}
.kirakiraB{fill:#232256}
.kirakiraU{fill:#5E7AA5}
.kirakiraT{fill:#BDC7D6}
.kirakiraH{fill:#FFFFFF}
.backF{fill:#FFFFFF}
.backB{fill:#232256}
.backU{fill:#5E7AA5}
.backS{fill:#8DA6C9}
.backA{fill:#FFE38B}
.backG{fill:#EEEEEF}
.backC{fill:#19DB9F}
.backD{fill:#DBBCA1}
</style>
<g class="icosvg">
<g>
	<path class="baseF" d="M370.823,211.357h-1.083C365.238,142.073,331.823,86.564,256,86.564s-109.237,55.509-113.74,124.793h-1.083   c-14.838-8.773-36.38,8.077-32.988,28.423c7.12,42.713,9.94,53.304,22.629,59.716c6.476,3.272,12.413,3.387,12.413,3.387h1.277   c4.228,26.866,12.675,46.638,23.503,61.72c16.545,23.046,59.074,39.94,87.989,39.94s71.445-16.894,87.989-39.94   c10.828-15.082,19.275-34.854,23.503-61.72h1.277c0,0,5.937-0.115,12.415-3.387c12.689-6.413,15.506-17.004,22.627-59.716   C407.203,219.434,385.661,202.584,370.823,211.357z"></path>
	<path class="baseB" d="M409.44,235.493c-0.007-8.856-3.759-16.746-9.241-22.42c-2.749-2.844-5.951-5.161-9.439-6.793   c-3.486-1.629-7.276-2.577-11.159-2.578c-1.71-0.003-3.434,0.222-5.14,0.617c-1.031-11.102-2.802-21.857-5.42-32.084   c-6.669-26.051-18.756-48.836-37.452-65.137c-9.337-8.142-20.307-14.626-32.909-19.04c-12.6-4.418-26.816-6.772-42.68-6.771   c-21.149-0.004-39.382,4.191-54.738,11.86c-23.061,11.495-39.403,30.751-49.784,54.246c-7.548,17.061-12.016,36.394-13.923,56.93   c-1.712-0.397-3.443-0.623-5.159-0.621c-3.884,0.001-7.675,0.949-11.161,2.578c-5.23,2.452-9.827,6.427-13.198,11.446   c-3.361,5.014-5.486,11.134-5.486,17.767c-0.001,1.693,0.138,3.421,0.432,5.166l-0.001-0.011   c3.584,21.412,6.033,34.841,9.469,44.399c1.726,4.772,3.764,8.644,6.443,11.822c2.67,3.181,5.926,5.521,9.543,7.338   c4.604,2.309,8.839,3.257,11.575,3.655c1.327,7.451,2.965,14.407,4.92,20.855c4.719,15.576,11.177,28.362,18.792,38.965   c4.587,6.381,10.766,12.101,17.884,17.182c10.684,7.612,23.512,13.789,36.541,18.127c13.036,4.327,26.244,6.821,37.85,6.83   c15.463-0.022,33.82-4.419,50.74-11.766c8.453-3.682,16.528-8.114,23.651-13.191c7.118-5.082,13.297-10.801,17.884-17.182   c7.616-10.602,14.074-23.389,18.792-38.965c1.954-6.448,3.593-13.403,4.92-20.855c2.735-0.398,6.969-1.346,11.575-3.655   c3.616-1.817,6.874-4.156,9.544-7.338c2.006-2.378,3.661-5.163,5.084-8.407c2.134-4.876,3.799-10.804,5.477-18.525   c1.673-7.721,3.342-17.25,5.35-29.288l0.096-0.578l-0.095,0.569C409.304,238.903,409.441,237.183,409.44,235.493z M398.606,238.913   c-3.537,21.3-6.057,34.523-8.982,42.541c-1.454,4.017-2.946,6.664-4.588,8.611c-1.65,1.943-3.504,3.332-6.233,4.721   c-1.799,0.91-3.56,1.518-5.12,1.942c0.934-7.445,1.572-15.359,1.868-23.805c0.102-2.913-2.176-5.356-5.089-5.458   c-2.912-0.102-5.355,2.176-5.457,5.088h-0.001c-0.739,21.097-3.622,38.545-8.034,53.102c-4.416,14.56-10.348,26.232-17.265,35.871   c-3.686,5.143-9.027,10.177-15.439,14.745c-9.613,6.862-21.605,12.673-33.744,16.705c-12.131,4.043-24.438,6.3-34.519,6.291   c-13.452,0.022-30.817-4.027-46.527-10.889c-7.862-3.422-15.328-7.535-21.737-12.107c-6.413-4.568-11.754-9.602-15.439-14.744   c-6.916-9.639-12.848-21.312-17.264-35.871c-4.412-14.557-7.296-32.005-8.036-53.102c-0.103-2.913-2.546-5.191-5.459-5.088   c-2.913,0.102-5.191,2.546-5.088,5.459c0.296,8.449,0.934,16.365,1.868,23.812c-1.559-0.422-3.329-1.037-5.121-1.949   c-2.728-1.389-4.582-2.778-6.233-4.721c-1.234-1.465-2.373-3.308-3.488-5.845c-1.672-3.797-3.232-9.136-4.828-16.52   c-1.602-7.384-3.257-16.799-5.255-28.787l-0.001-0.011c-0.196-1.154-0.286-2.289-0.287-3.408c-0.007-5.8,2.494-11.167,6.28-15.086   c1.884-1.953,4.071-3.517,6.32-4.565c2.25-1.052,4.545-1.587,6.691-1.586c1.535,0.005,2.991,0.276,4.398,0.831   c-0.209,4.295-0.347,8.618-0.348,12.991c0,2.914,2.363,5.277,5.277,5.277c2.913,0,5.277-2.363,5.277-5.277H147   c0-18.842,1.993-36.867,6.183-53.224c6.291-24.557,17.48-45.262,34.164-59.799c8.352-7.277,18.098-13.049,29.464-17.036   c11.365-3.983,24.364-6.176,39.19-6.177c19.77,0.004,36.28,3.892,50.023,10.749c20.587,10.293,35.194,27.323,44.849,49.076   c9.632,21.732,14.134,48.145,14.128,76.412c0,2.914,2.362,5.277,5.277,5.277c2.913,0,5.277-2.363,5.277-5.277   c0-4.373-0.12-8.705-0.329-12.999c1.402-0.549,2.85-0.819,4.376-0.823c2.146-0.001,4.44,0.533,6.689,1.585   c3.375,1.57,6.598,4.315,8.897,7.759c2.307,3.449,3.701,7.533,3.701,11.893C398.886,236.612,398.796,237.752,398.606,238.913z"></path>
</g>

<g>
	<path class="hairU" d="M429.831,221.16c-9.115-4.556-26.508-32.984-29.887-56.562C391.002,102.2,340.373,49.972,295.691,40.735
		c-40.064-8.283-98.941-7.458-113.046,26.552c-22.76,10.966-48.48,34.434-57.52,65.955c-14.034,48.94-32.262,61.765-32.262,61.765
		s8.58,31.071,37.254,27.811c3.054,11.241,7.28,23.641,11.606,26.194c8.262,4.87,11.309-15.23,13.613-27.853
		c19.57-5.714,12.751-44.502,24.48-58.751c15.924-19.344,76.177-12.007,76.184-12.007c0,0,2.023,0.056,5.393,0.206
		c23.03,35.66,50.37,75.928,89.538,80.559c2.749,0.326,5.297,0.548,7.748,0.724c2.215,10.615,5.47,20.733,11.597,17.121
		c3.241-1.91,6.424-9.368,9.103-17.707c4.423-0.769,7.868-1.98,10.5-3.523C399.309,231.599,412.152,230.844,429.831,221.16z"></path>
	<g>
		<path class="hairB" d="M379.38,231.306c-8.227-1.104-6.586,9.094-11.339,13.247c-2.051-2.681-2.843-7.284-4.341-10.486
			c8.302-1.533,5.829-4.76-1.502-6.464c-104.911-15.607-98.203-150.323-129.115-112.425c-3.129,4.453-5.808,18.523-0.914,20.963
			c4.139-1.966,6.382-16.509,11.06-18.145c3.544,1.003,4.322,6.921,5.454,10.54c-6.274-0.333-20.168,34.823-6.129,24.26
			c-0.354-2.297,5.386-16.186,8.098-17.946c0.682,1.884,1.439,3.874,2.271,5.962c-2.227,2.248-10.671,10.587-3.708,11.759
			c5.006,0.729,3.04-2.044,6.473-5.159c17.986,42.438,57.361,83.592,99.818,87.098c-2.259,9.923,9.64,27.783,19.924,16.491
			C378.822,245.392,386.905,235.967,379.38,231.306z"></path>
		<path class="hairB" d="M192.911,139.175c-27.544,19.005-20.951,57.689-37.575,81.984c-9.752,2.07-5.503,16.716-11.37,23.395
			c-0.002-0.002-0.002-0.005-0.005-0.007c0,0.002,0,0.002,0,0.002c-6.57-5.541-4.298-22.955-14.817-21.291
			c-11.43-4.277-27.752-16.709-31.528-28.673c31.228-23.653,27.202-76.303,57.504-101.585c8.384-8.095,49.38-37.685,12.272-22.305
			c-44.653,24.277-48.375,83.009-74.407,121.275c-13.594,14.508,22.786,37.683,35.18,40.997
			c9.157,38.918,34.767,17.716,29.325-10.432c28.603-5.932,12.307-60.424,42.998-76.873c0.164,1.938,8.855,8.205,9.684,10.608
			c11.752,1.184,0.241-11.187-4.566-13.772c3.877-1.877,7.458-2.787,11.648-2.648c-2.358,4.891,0.403,3.164,2.96,7.784
			c1.638,3.073,1.523,3.834,1.964,5.163c0.164,1.528,6.71,1.462,6.227-0.736c0.623-1.734-3.122-10.186-5.745-11.927
			C245.502,140.035,211.518,119.694,192.911,139.175z"></path>
		<path class="hairB" d="M423.81,210.767c-28.917-51.705-22.012-106.605-75.893-147.949c-45.401-36.647-119.459-46.976-161.402-7.952
			c-7.425,12.218-5.133,16.826,5.13,4.458c58.397-42.23,153.403-10.463,184.793,53.02c23.459,36.286,13.038,78.888,47.367,107.18
			c-14.081,6.15-40.826,5.217-54.056-3.504c-6.361-2.21-12.525-10.849-19.158-7.043c-1.01,22.022,75.023,35.85,79.24,12.183
			C430.347,219.817,427.066,216.531,423.81,210.767z"></path>
		<path class="hairB" d="M257.683,73.525c-7.823,2.391-7.034,4.887,0.33,4.582c50.367,11.412,59.449,116.529,121.908,107.733
			c-55.612-20.159-58.036-52.198-89.163-94.418C281.652,81.521,272.036,71.628,257.683,73.525z"></path>
		<path class="hairB" d="M145.97,167.019c-2.107,7.287-10.509,14.002-10.252,20.571c21.129-5.536,23.067-49.62,34.158-65.721
			c3.652-6.741,23.416-28.772,3.272-15.532C159.637,118.009,152.936,151.457,145.97,167.019z"></path>
		<path class="hairB" d="M372.885,144.613c-1.027-5.36-8.766-6.652-12.277-11.055c-8.445-6.11-22.622-34.941-25.931-38.871
			c-17.48-14.735,4.38,20.749,9.204,28.666C352.345,134.525,361.016,148.789,372.885,144.613z"></path>
	</g>
</g>


<g>
	<path class="mouthB" d="M267.952,350.274c-3.436,0.005-7.011,0.504-10.473,0.968c-3.451,0.471-6.786,0.905-9.469,0.9
		c-1.807,0.007-3.291-0.204-4.249-0.553c-0.975-0.368-1.376-0.71-1.741-1.28c-1.105-1.812-3.468-2.386-5.278-1.28
		c-1.812,1.104-2.384,3.466-1.28,5.276c1.358,2.262,3.527,3.757,5.722,4.519c2.212,0.78,4.501,0.991,6.826,0.998
		c3.449-0.005,7.035-0.504,10.496-0.968c3.451-0.471,6.78-0.905,9.445-0.9c2.747-0.026,4.581,0.518,5.265,1.12
		c1.663,1.315,4.077,1.031,5.393-0.63c1.315-1.664,1.032-4.078-0.63-5.393C274.955,350.721,271.415,350.299,267.952,350.274z"></path>
	<polygon class="mouthB" points="235.462,354.307 235.462,354.305 235.461,354.305 	"></polygon>
</g>


<g>
	<path class="noseB" d="M258.377,310.895c-1.423-1.076-3.396-0.963-4.734,0.211c-3.748,3.293-4.53,5.564-1.61,6.293
		c3.452,0.865,9.612,0.712,10.908-1.015C263.768,315.28,260.698,312.648,258.377,310.895z"></path>
</g>


<g>
	<g>
		<path class="eyeB" d="M225.56,263.765h-32.272c-2.467,0-4.486,2.018-4.486,4.485s2.019,4.486,4.486,4.486h5.237
			c0.388,5.826,5.188,10.446,11.113,10.446c5.925,0,10.725-4.62,11.113-10.446h4.809c2.467,0,4.486-2.019,4.486-4.486
			S228.027,263.765,225.56,263.765z"></path>
		<path class="eyeB" d="M318.713,263.765h-32.272c-2.467,0-4.486,2.018-4.486,4.485s2.019,4.486,4.486,4.486h5.238
			c0.388,5.826,5.188,10.446,11.113,10.446s10.725-4.62,11.113-10.446h4.809c2.467,0,4.486-2.019,4.486-4.486
			S321.18,263.765,318.713,263.765z"></path>
	</g>
</g>


<g>
	<path class="glassB" d="M360.908,250.218h-9.261c-6.377-17.227-22.901-29.524-42.346-29.527c-19.413,0.002-35.916,12.26-42.318,29.44
		c-3.519-1.455-7.247-2.224-10.983-2.224c-3.736,0-7.465,0.764-10.984,2.224c-6.403-17.18-22.904-29.438-42.316-29.44
		c-19.446,0.002-35.97,12.3-42.347,29.527h-9.26c-3.097,0-5.607,2.51-5.607,5.609c0,3.096,2.51,5.606,5.607,5.606h6.636
		c-0.143,1.467-0.225,2.951-0.225,4.455c0.004,24.963,20.231,45.192,45.196,45.197c24.963-0.005,45.193-20.234,45.197-45.197
		c0-1.573-0.082-3.124-0.239-4.655l0.148-0.077c2.565-1.357,5.375-2.034,8.195-2.034c2.811,0,5.625,0.677,8.193,2.034l0.149,0.077
		c-0.157,1.53-0.239,3.082-0.239,4.655c0.004,24.963,20.234,45.192,45.198,45.197c24.963-0.005,45.191-20.234,45.195-45.197
		c0-1.505-0.082-2.988-0.225-4.455h6.638c3.096,0,5.606-2.51,5.606-5.606C366.515,252.728,364.004,250.218,360.908,250.218z
		 M226.73,289.916c-6.168,6.159-14.629,9.952-24.029,9.954c-9.402-0.002-17.862-3.795-24.029-9.954
		c-6.157-6.166-9.949-14.627-9.953-24.028c0.004-9.403,3.795-17.862,9.953-24.03c6.168-6.157,14.627-9.949,24.029-9.952
		c9.401,0.002,17.862,3.795,24.029,9.952c6.158,6.169,9.95,14.627,9.954,24.03C236.68,275.289,232.888,283.75,226.73,289.916z
		 M333.329,289.916c-6.168,6.159-14.627,9.952-24.028,9.954c-9.402-0.002-17.863-3.795-24.03-9.954
		c-6.158-6.166-9.95-14.627-9.954-24.028c0.004-9.403,3.796-17.862,9.954-24.03c6.168-6.157,14.629-9.949,24.03-9.952
		c9.401,0.002,17.861,3.795,24.028,9.952c6.158,6.169,9.949,14.627,9.953,24.03C343.279,275.289,339.487,283.75,333.329,289.916z"></path>
</g>

</g></svg>